<?xml version="1.0" encoding="utf-8"?>
<!-- Generator: Adobe Illustrator 17.0.1, SVG Export Plug-In . SVG Version: 6.00 Build 0)  -->
<!DOCTYPE svg PUBLIC "-//W3C//DTD SVG 1.1//EN" "http://www.w3.org/Graphics/SVG/1.1/DTD/svg11.dtd">
<svg version="1.1" id="Layer_1" xmlns="http://www.w3.org/2000/svg" xmlns:xlink="http://www.w3.org/1999/xlink" x="0px" y="0px"
	 width="47.667px" height="55px" viewBox="0 0 47.667 55" enable-background="new 0 0 47.667 55" xml:space="preserve">
<path fill="#FFFFFF" d="M46.057,27.202c0-5.454-2.855-10.237-7.148-12.948C37.906,6.772,31.501,1.001,23.744,1
	C16.085,1.001,9.74,6.626,8.616,13.971C4.063,16.623,1,21.553,1,27.202c0,5.649,3.063,10.579,7.616,13.231
	c1.125,7.345,7.469,12.97,15.129,12.971c7.757-0.001,14.161-5.772,15.165-13.254C43.203,37.44,46.057,32.656,46.057,27.202z
	 M14.137,6.699c2.461-2.46,5.852-3.979,9.607-3.979c3.754,0,7.145,1.519,9.607,3.979c1.764,1.765,3.04,4.009,3.623,6.52
	c-1.902-0.848-4.006-1.322-6.222-1.323c-2.613,0-5.071,0.656-7.223,1.81c-2.152-1.154-4.61-1.81-7.223-1.81
	c-2.032,0-3.97,0.4-5.744,1.119C11.166,10.586,12.422,8.416,14.137,6.699z M37.33,16.306c0,3.833-1.586,7.286-4.139,9.757
	c-1.804-1.418-3.937-2.44-6.264-2.934c1.102-0.915,1.803-2.294,1.804-3.838c0-2.112-1.315-3.913-3.169-4.64
	c1.599-0.663,3.349-1.035,5.19-1.035c2.372,0,4.598,0.608,6.537,1.675C37.313,15.626,37.33,15.964,37.33,16.306z M37.288,39.114
	c-1.939,1.067-4.165,1.674-6.537,1.675c-1.841,0-3.591-0.372-5.19-1.035c1.854-0.727,3.169-2.528,3.169-4.64
	c0-1.544-0.702-2.923-1.804-3.838c2.327-0.494,4.46-1.515,6.264-2.934c2.552,2.472,4.138,5.925,4.139,9.757
	C37.33,38.441,37.313,38.778,37.288,39.114z M10.158,38.099c0-3.833,1.586-7.286,4.139-9.757c1.804,1.418,3.937,2.44,6.264,2.934
	c-1.102,0.915-1.803,2.294-1.804,3.838c0,2.03,1.214,3.772,2.954,4.551c-1.657,0.72-3.482,1.124-5.405,1.124
	c-2.191,0-4.257-0.521-6.088-1.441C10.18,38.936,10.158,38.52,10.158,38.099z M10.218,15.057c1.831-0.92,3.897-1.441,6.088-1.441
	c1.924,0,3.749,0.404,5.405,1.124c-1.74,0.779-2.954,2.521-2.954,4.551c0,1.544,0.702,2.923,1.804,3.838
	c-2.327,0.494-4.46,1.515-6.264,2.934c-2.552-2.472-4.138-5.925-4.139-9.757C10.158,15.884,10.18,15.468,10.218,15.057z
	 M15.639,27.202c2.264-1.688,5.063-2.689,8.105-2.689c3.042,0,5.841,1.002,8.105,2.689c-2.264,1.688-5.063,2.689-8.105,2.689
	C20.702,29.891,17.903,28.89,15.639,27.202z M23.744,22.559c-0.905,0-1.716-0.364-2.31-0.957c-0.593-0.594-0.957-1.405-0.957-2.31
	c0-0.905,0.364-1.716,0.957-2.31c0.594-0.593,1.405-0.957,2.31-0.957c0.905,0,1.716,0.364,2.31,0.957
	c0.593,0.594,0.957,1.405,0.957,2.31c0,0.905-0.364,1.716-0.957,2.31C25.461,22.195,24.649,22.559,23.744,22.559z M21.434,37.424
	c-0.593-0.594-0.957-1.405-0.957-2.31c0-0.905,0.364-1.716,0.957-2.31c0.594-0.593,1.405-0.957,2.31-0.957
	c0.905,0,1.716,0.364,2.31,0.957c0.593,0.594,0.957,1.405,0.957,2.31c0,0.905-0.364,1.716-0.957,2.31
	c-0.594,0.593-1.405,0.957-2.31,0.957C22.839,38.38,22.028,38.016,21.434,37.424z M6.699,36.809
	c-2.46-2.461-3.979-5.852-3.979-9.607c0-3.754,1.519-7.145,3.979-9.607c0.538-0.538,1.123-1.027,1.744-1.469
	c-0.001,0.06-0.005,0.119-0.005,0.179c0,4.265,1.752,8.123,4.567,10.897c-2.815,2.773-4.568,6.632-4.567,10.897
	c0,0.06,0.004,0.119,0.005,0.179C7.822,37.836,7.237,37.347,6.699,36.809z M33.351,47.706c-2.461,2.46-5.852,3.979-9.607,3.979
	c-3.754,0-7.145-1.519-9.607-3.979c-1.716-1.717-2.972-3.887-3.576-6.316c1.774,0.719,3.712,1.119,5.744,1.119
	c2.613,0,5.071-0.656,7.223-1.81c2.152,1.154,4.61,1.81,7.223,1.81c2.216,0,4.321-0.475,6.222-1.323
	C36.39,43.697,35.114,45.941,33.351,47.706z M39.046,37.959c-0.038-4.209-1.779-8.014-4.563-10.757
	c2.784-2.743,4.526-6.547,4.563-10.757c0.461,0.356,0.901,0.738,1.312,1.15c2.46,2.461,3.979,5.852,3.979,9.607
	c0,3.754-1.519,7.145-3.979,9.607C39.947,37.22,39.507,37.603,39.046,37.959z"/>
</svg>
