<?xml version="1.0" standalone="no"?><!-- Generator: Gravit.io --><svg xmlns="http://www.w3.org/2000/svg" xmlns:xlink="http://www.w3.org/1999/xlink" style="isolation:isolate" viewBox="0 0 618 117" width="618" height="117"><defs><clipPath id="_clipPath_1QyTRH85uTGOmvHDAzRiZf7FJXR86nee"><rect width="618" height="117"/></clipPath></defs><g clip-path="url(#_clipPath_1QyTRH85uTGOmvHDAzRiZf7FJXR86nee)"><g id="BeyondLimits_Proud_FinalLogo_BLCK_H"><path d=" M 443.962 62.404 L 446.701 57.058 C 444.028 55.452 441.087 54.382 437.277 54.382 C 431.595 54.382 427.517 58.327 427.517 63.073 C 427.517 71.496 440.352 72.365 440.352 75.841 C 440.352 76.91 439.282 77.846 436.942 77.846 C 434.535 77.846 431.662 76.776 429.59 75.106 L 426.916 80.721 C 429.456 82.458 433.064 84.196 437.01 84.196 C 443.627 84.196 447.639 80.252 447.639 75.373 C 447.639 66.95 434.736 66.015 434.736 62.739 C 434.736 61.469 435.939 60.734 438.013 60.734 C 439.95 60.734 442.357 61.401 443.962 62.404 Z  M 418.56 61.268 L 424.376 61.268 L 424.376 55.186 L 418.56 55.186 L 418.56 47.231 L 411.274 47.231 L 411.274 55.186 L 406.93 55.186 L 406.93 61.268 L 411.274 61.268 L 411.274 76.575 C 411.274 80.788 413.881 83.394 417.558 83.394 L 423.641 83.394 L 423.641 76.575 L 420.766 76.575 C 419.295 76.575 418.56 75.841 418.56 74.371 L 418.56 61.268 L 418.56 61.268 Z  M 404.085 46.743 C 404.085 44.556 402.311 42.781 400.123 42.781 C 397.935 42.781 396.162 44.556 396.162 46.743 C 396.162 48.932 397.935 50.706 400.123 50.706 C 402.311 50.706 404.085 48.932 404.085 46.743 Z  M 383.4 83.394 L 390.687 83.394 L 390.687 66.75 C 390.687 59.596 385.739 54.382 378.521 54.382 C 374.845 54.382 371.97 55.853 370.031 57.793 C 368.16 55.787 365.219 54.382 361.474 54.382 C 354.455 54.382 349.308 59.33 349.308 66.75 L 349.308 83.394 L 356.661 83.394 L 356.661 66.817 C 356.661 63.474 358.466 61.335 361.542 61.335 C 364.415 61.335 366.354 63.675 366.354 66.817 L 366.354 83.394 L 373.641 83.394 L 373.641 66.817 C 373.641 63.541 375.58 61.335 378.588 61.335 C 381.596 61.335 383.4 63.474 383.4 66.817 L 383.4 83.394 L 383.4 83.394 Z  M 343.867 46.743 C 343.867 44.556 342.094 42.781 339.906 42.781 C 337.718 42.781 335.943 44.556 335.943 46.743 C 335.943 48.932 337.718 50.706 339.906 50.706 C 342.094 50.706 343.867 48.932 343.867 46.743 Z  M 325.766 83.394 L 330.913 83.394 L 330.913 76.575 L 328.974 76.575 C 327.503 76.575 326.768 75.841 326.768 74.371 L 326.768 41.147 L 319.48 41.147 L 319.48 76.575 C 319.48 80.788 322.089 83.394 325.766 83.394 Z  M 312.797 71.361 L 312.797 41.147 L 311.126 41.147 L 311.126 60.666 C 309.054 56.989 304.976 54.382 299.695 54.382 C 292.409 54.382 286.728 59.596 286.728 67.217 L 286.728 71.361 C 286.728 78.983 292.476 84.196 299.762 84.196 C 306.982 84.196 312.797 78.983 312.797 71.361 Z  M 311.126 71.361 C 311.126 78.046 306.179 82.659 299.762 82.659 C 293.412 82.659 288.397 78.046 288.397 71.361 L 288.397 67.217 C 288.397 60.533 293.077 55.922 299.762 55.922 C 306.179 55.922 311.126 60.533 311.126 67.217 L 311.126 71.361 L 311.126 71.361 Z  M 278.572 83.394 L 280.242 83.394 L 280.242 67.217 C 280.242 59.33 274.762 54.382 267.208 54.382 C 259.788 54.382 254.172 59.33 254.172 67.217 L 254.172 83.394 L 255.844 83.394 L 255.844 67.217 C 255.844 60.198 260.724 55.922 267.208 55.922 C 273.758 55.922 278.572 60.265 278.572 67.217 L 278.572 83.394 L 278.572 83.394 Z  M 247.689 71.228 L 247.689 67.352 C 247.689 59.731 241.941 54.382 234.654 54.382 C 227.435 54.382 221.62 59.731 221.62 67.352 L 221.62 71.228 C 221.62 78.849 227.435 84.196 234.654 84.196 C 241.941 84.196 247.689 78.849 247.689 71.228 Z  M 246.019 71.228 C 246.019 77.98 241.071 82.659 234.654 82.659 C 228.305 82.659 223.29 77.98 223.29 71.228 L 223.29 67.352 C 223.29 60.6 228.305 55.922 234.654 55.922 C 241.071 55.922 246.019 60.6 246.019 67.352 L 246.019 71.228 L 246.019 71.228 Z  M 215.135 81.456 L 215.135 55.186 L 213.465 55.186 L 213.465 71.295 C 213.465 78.181 208.65 82.526 202.101 82.526 C 195.616 82.526 190.67 77.846 190.67 71.295 L 190.67 55.186 L 189.064 55.186 L 189.064 71.295 C 189.064 78.983 194.747 84.063 201.966 84.063 C 207.314 84.063 211.525 81.656 213.465 77.579 L 213.465 81.589 C 213.465 87.539 208.852 92.686 201.031 92.686 C 197.421 92.686 193.678 91.35 191.337 89.745 L 190.736 91.283 C 193.276 92.82 197.22 94.223 200.764 94.223 C 210.322 94.223 215.135 88.074 215.135 81.456 Z  M 159.186 69.691 L 183.584 69.691 L 183.584 67.419 C 183.584 59.797 177.835 54.382 170.55 54.382 C 163.33 54.382 157.514 59.797 157.514 67.419 L 157.514 71.162 C 157.514 78.781 163.33 84.196 170.55 84.196 C 174.894 84.196 178.37 82.726 180.844 79.985 L 179.707 78.916 C 177.702 81.122 174.627 82.659 170.616 82.659 C 163.864 82.659 159.186 77.512 159.186 71.361 L 159.186 69.691 L 159.186 69.691 Z  M 159.186 68.287 L 159.186 67.217 C 159.186 60.934 163.864 55.853 170.616 55.853 C 177.234 55.853 181.912 60.934 181.912 67.217 L 181.912 68.287 L 159.186 68.287 L 159.186 68.287 Z  M 152.3 71.361 L 152.3 67.217 C 152.3 59.596 146.619 54.382 139.332 54.382 C 134.051 54.382 129.973 56.989 127.901 60.801 L 127.901 41.147 L 126.229 41.147 L 126.229 71.361 C 126.229 78.983 132.046 84.196 139.266 84.196 C 146.551 84.196 152.3 78.983 152.3 71.361 Z  M 150.63 71.361 C 150.63 78.046 145.683 82.659 139.266 82.659 C 132.914 82.659 127.901 78.046 127.901 71.361 L 127.901 67.217 C 127.901 60.533 132.914 55.922 139.266 55.922 C 145.683 55.922 150.63 60.533 150.63 67.217 L 150.63 71.361 L 150.63 71.361 Z  M 336.207 83.396 L 343.493 83.396 L 343.493 55.186 L 336.207 55.186 L 336.207 83.396 L 336.207 83.396 Z  M 396.502 83.396 L 403.788 83.396 L 403.788 55.186 L 396.502 55.186 L 396.502 83.396 L 396.502 83.396 Z " fill-rule="evenodd" fill="rgb(160,102,17)"/><path d=" M 481.136 77.42 C 480.701 77.907 480.178 78.396 479.636 78.884 L 477.831 77.148 C 478.806 76.317 479.69 75.341 479.69 74.057 C 479.69 72.865 478.535 71.53 476.674 71.53 C 474.813 71.53 473.639 72.865 473.639 74.22 C 473.639 75.341 474.198 76.082 475.102 76.932 C 473.945 77.818 473.134 78.703 473.134 80.04 C 473.134 81.667 474.523 82.713 476.167 82.713 C 477.651 82.713 478.734 82.19 479.563 81.468 L 480.811 82.731 L 482.708 82.007 L 480.901 80.201 C 481.443 79.677 481.912 79.117 482.419 78.557 L 481.136 77.42 L 481.136 77.42 Z  M 476.403 80.835 C 475.878 80.835 475.336 80.493 475.336 79.824 C 475.336 79.299 475.732 78.865 476.457 78.341 L 478.175 80.077 C 477.633 80.584 477.09 80.835 476.403 80.835 Z  M 476.638 75.738 C 476.096 75.233 475.661 74.762 475.661 74.184 C 475.661 73.714 476.041 73.226 476.711 73.226 C 477.344 73.226 477.741 73.678 477.741 74.22 C 477.741 74.799 477.107 75.323 476.638 75.738 Z  M 489.053 82.496 L 495.482 82.496 L 495.482 80.637 L 491.092 80.637 L 491.092 77.798 L 494.651 77.798 L 494.651 75.939 L 491.092 75.939 L 491.092 73.606 L 495.482 73.606 L 495.482 71.746 L 489.053 71.746 L 489.053 82.496 L 489.053 82.496 Z  M 496.73 74.873 L 499.368 82.496 L 501.719 82.496 L 504.392 74.873 L 502.404 74.873 L 500.579 80.003 L 498.809 74.873 L 496.73 74.873 L 496.73 74.873 Z  M 507.465 77.963 C 507.465 77.185 508.115 76.389 509.145 76.389 C 510.157 76.389 510.88 77.185 510.88 77.944 L 507.465 77.963 L 507.465 77.963 Z  M 512.884 78.324 C 512.884 76.226 511.187 74.655 509.145 74.655 C 507.14 74.655 505.423 76.243 505.423 78.324 L 505.423 79.045 C 505.423 81.16 507.121 82.713 509.163 82.713 C 510.501 82.713 511.584 82.19 512.27 81.485 L 511.168 80.112 C 510.681 80.618 510.066 80.908 509.218 80.908 C 508.277 80.908 507.592 80.329 507.483 79.568 L 512.884 79.568 L 512.884 78.324 L 512.884 78.324 Z  M 522.045 78.321 C 522.045 76.047 520.492 74.655 518.306 74.655 C 516.154 74.655 514.584 76.064 514.584 78.321 L 514.584 82.496 L 516.551 82.496 L 516.551 78.321 C 516.551 77.328 517.293 76.533 518.306 76.533 C 519.354 76.533 520.077 77.328 520.077 78.321 L 520.077 82.496 L 522.045 82.496 L 522.045 78.321 L 522.045 78.321 Z  M 526.525 76.515 L 528.098 76.515 L 528.098 74.873 L 526.525 74.873 L 526.525 72.723 L 524.559 72.723 L 524.559 74.873 L 523.383 74.873 L 523.383 76.515 L 524.559 76.515 L 524.559 80.655 C 524.559 81.792 525.262 82.496 526.254 82.496 L 527.899 82.496 L 527.899 80.655 L 527.123 80.655 C 526.725 80.655 526.525 80.457 526.525 80.059 L 526.525 76.515 L 526.525 76.515 Z  M 540.457 79.751 C 540.022 80.384 539.317 80.763 538.47 80.763 C 537.15 80.763 536.174 79.787 536.174 78.341 L 536.174 75.901 C 536.174 74.456 537.113 73.48 538.451 73.48 C 539.246 73.48 539.896 73.787 540.385 74.382 L 541.848 73.137 C 541.035 72.143 539.986 71.53 538.451 71.53 C 535.796 71.53 534.135 73.353 534.135 75.884 L 534.135 78.36 C 534.135 80.89 535.813 82.713 538.47 82.713 C 539.915 82.713 541.053 82.064 541.848 81.088 L 540.457 79.751 L 540.457 79.751 Z  M 548.734 79.046 C 548.734 80.059 548.012 80.835 546.963 80.835 C 545.95 80.835 545.208 80.059 545.208 79.046 L 545.208 78.323 C 545.208 77.329 545.95 76.533 546.963 76.533 C 548.012 76.533 548.734 77.329 548.734 78.323 L 548.734 79.046 L 548.734 79.046 Z  M 550.702 78.323 C 550.702 76.226 549.005 74.655 546.963 74.655 C 544.957 74.655 543.241 76.209 543.241 78.323 L 543.241 79.046 C 543.241 81.16 544.974 82.713 546.963 82.713 C 549.005 82.713 550.702 81.179 550.702 79.046 L 550.702 78.323 L 550.702 78.323 Z  M 552.492 80.652 C 552.492 81.792 553.197 82.496 554.19 82.496 L 555.58 82.496 L 555.58 80.652 L 555.057 80.652 C 554.66 80.652 554.461 80.454 554.461 80.057 L 554.461 71.079 L 552.492 71.079 L 552.492 80.652 L 552.492 80.652 Z  M 556.92 80.652 C 556.92 81.792 557.623 82.496 558.617 82.496 L 560.008 82.496 L 560.008 80.652 L 559.483 80.652 C 559.086 80.652 558.888 80.454 558.888 80.057 L 558.888 71.079 L 556.92 71.079 L 556.92 80.652 L 556.92 80.652 Z  M 563.117 77.963 C 563.117 77.185 563.769 76.389 564.798 76.389 C 565.81 76.389 566.532 77.185 566.532 77.944 L 563.117 77.963 L 563.117 77.963 Z  M 568.536 78.324 C 568.536 76.226 566.839 74.655 564.798 74.655 C 562.792 74.655 561.075 76.243 561.075 78.324 L 561.075 79.045 C 561.075 81.16 562.774 82.713 564.815 82.713 C 566.153 82.713 567.236 82.19 567.922 81.485 L 566.821 80.112 C 566.334 80.618 565.72 80.908 564.87 80.908 C 563.931 80.908 563.244 80.329 563.136 79.568 L 568.536 79.568 L 568.536 78.324 L 568.536 78.324 Z  M 575.186 80.149 C 574.842 80.546 574.354 80.835 573.686 80.835 C 572.638 80.835 571.933 80.059 571.933 79.046 L 571.933 78.323 C 571.933 77.329 572.638 76.533 573.686 76.533 C 574.336 76.533 574.807 76.804 575.096 77.22 L 576.521 75.992 C 575.836 75.143 574.859 74.655 573.703 74.655 C 571.68 74.655 569.966 76.209 569.966 78.323 L 569.966 79.046 C 569.966 81.196 571.644 82.713 573.703 82.713 C 574.896 82.713 575.836 82.243 576.521 81.449 L 575.186 80.149 L 575.186 80.149 Z  M 580.389 76.515 L 581.961 76.515 L 581.961 74.873 L 580.389 74.873 L 580.389 72.723 L 578.422 72.723 L 578.422 74.873 L 577.248 74.873 L 577.248 76.515 L 578.422 76.515 L 578.422 80.655 C 578.422 81.792 579.126 82.496 580.119 82.496 L 581.763 82.496 L 581.763 80.655 L 580.986 80.655 C 580.588 80.655 580.389 80.457 580.389 80.059 L 580.389 76.515 L 580.389 76.515 Z  M 583.571 82.496 L 585.539 82.496 L 585.539 74.872 L 583.571 74.872 L 583.571 82.496 L 583.571 82.496 Z  M 583.571 73.788 L 585.539 73.788 L 585.539 71.529 L 583.571 71.529 L 583.571 73.788 L 583.571 73.788 Z  M 586.896 74.873 L 589.532 82.496 L 591.883 82.496 L 594.556 74.873 L 592.568 74.873 L 590.743 80.003 L 588.973 74.873 L 586.896 74.873 L 586.896 74.873 Z  M 597.629 77.963 C 597.629 77.185 598.28 76.389 599.311 76.389 C 600.321 76.389 601.045 77.185 601.045 77.944 L 597.629 77.963 L 597.629 77.963 Z  M 603.048 78.324 C 603.048 76.226 601.351 74.655 599.311 74.655 C 597.304 74.655 595.587 76.243 595.587 78.324 L 595.587 79.045 C 595.587 81.16 597.285 82.713 599.327 82.713 C 600.665 82.713 601.748 82.19 602.434 81.485 L 601.334 80.112 C 600.846 80.618 600.232 80.908 599.382 80.908 C 598.443 80.908 597.756 80.329 597.647 79.568 L 603.048 79.568 L 603.048 78.324 L 603.048 78.324 Z " fill-rule="evenodd" fill="rgb(160,102,17)"/><path d=" M 472.14 54.532 L 474.76 54.532 L 474.76 63.423 L 476.799 63.423 L 476.799 54.532 L 479.42 54.532 L 479.42 52.674 L 472.14 52.674 L 472.14 54.532 L 472.14 54.532 Z  M 488.363 59.248 C 488.363 56.973 486.793 55.582 484.679 55.582 C 484.027 55.582 483.413 55.763 482.871 56.07 L 482.871 52.005 L 480.903 52.005 L 480.903 63.423 L 482.871 63.423 L 482.871 59.176 C 482.871 58.201 483.593 57.459 484.624 57.459 C 485.672 57.459 486.396 58.255 486.396 59.248 L 486.396 63.423 L 488.363 63.423 L 488.363 59.248 L 488.363 59.248 Z  M 492.195 58.89 C 492.195 58.112 492.848 57.315 493.877 57.315 C 494.889 57.315 495.611 58.112 495.611 58.871 L 492.195 58.89 L 492.195 58.89 Z  M 497.615 59.251 C 497.615 57.152 495.919 55.582 493.877 55.582 C 491.871 55.582 490.155 57.172 490.155 59.251 L 490.155 59.973 C 490.155 62.087 491.854 63.64 493.896 63.64 C 495.231 63.64 496.316 63.116 497.002 62.412 L 495.9 61.038 C 495.413 61.545 494.799 61.835 493.949 61.835 C 493.01 61.835 492.322 61.255 492.215 60.495 L 497.615 60.495 L 497.615 59.251 L 497.615 59.251 Z  M 504.067 63.423 L 507.916 63.423 C 510.03 63.423 511.601 62.214 511.601 60.063 C 511.601 58.779 510.914 57.931 510.192 57.479 C 510.716 56.956 511.077 56.232 511.077 55.328 C 511.077 53.702 509.723 52.674 507.663 52.674 L 504.067 52.674 L 504.067 63.423 L 504.067 63.423 Z  M 507.934 58.76 C 508.909 58.76 509.489 59.267 509.489 60.063 C 509.489 61.04 508.909 61.582 507.916 61.582 L 506.106 61.582 L 506.106 58.76 L 507.934 58.76 L 507.934 58.76 Z  M 507.608 54.514 C 508.458 54.514 509 54.931 509 55.672 C 509 56.523 508.403 56.92 507.627 56.92 L 506.106 56.92 L 506.106 54.514 L 507.608 54.514 L 507.608 54.514 Z  M 518.576 59.973 C 518.576 60.985 517.854 61.763 516.805 61.763 C 515.793 61.763 515.052 60.985 515.052 59.973 L 515.052 59.25 C 515.052 58.255 515.793 57.459 516.805 57.459 C 517.854 57.459 518.576 58.255 518.576 59.25 L 518.576 59.973 L 518.576 59.973 Z  M 520.544 59.25 C 520.544 57.152 518.849 55.582 516.805 55.582 C 514.799 55.582 513.084 57.135 513.084 59.25 L 513.084 59.973 C 513.084 62.087 514.817 63.64 516.805 63.64 C 518.849 63.64 520.544 62.106 520.544 59.973 L 520.544 59.25 L 520.544 59.25 Z  M 529.471 55.799 L 527.503 55.799 L 527.503 60.027 C 527.503 61.148 526.87 61.763 525.894 61.763 C 524.953 61.763 524.304 61.148 524.304 60.027 L 524.304 55.799 L 522.336 55.799 L 522.336 60.027 C 522.336 62.322 523.833 63.64 525.894 63.64 C 527.99 63.64 529.471 62.34 529.471 60.027 L 529.471 55.799 L 529.471 55.799 Z  M 533.951 57.442 L 535.523 57.442 L 535.523 55.799 L 533.951 55.799 L 533.951 53.649 L 531.984 53.649 L 531.984 55.799 L 530.81 55.799 L 530.81 57.442 L 531.984 57.442 L 531.984 61.582 C 531.984 62.718 532.688 63.423 533.682 63.423 L 535.325 63.423 L 535.325 61.582 L 534.549 61.582 C 534.15 61.582 533.951 61.383 533.951 60.985 L 533.951 57.442 L 533.951 57.442 Z  M 537.134 63.423 L 539.102 63.423 L 539.102 55.8 L 537.134 55.8 L 537.134 63.423 L 537.134 63.423 Z  M 537.134 54.715 L 539.102 54.715 L 539.102 52.456 L 537.134 52.456 L 537.134 54.715 L 537.134 54.715 Z  M 540.946 59.973 C 540.946 62.069 542.625 63.64 544.667 63.64 C 545.337 63.64 545.879 63.478 546.422 63.17 L 546.422 66.132 L 548.406 66.132 L 548.406 59.25 C 548.406 57.135 546.675 55.582 544.686 55.582 C 542.644 55.582 540.946 57.117 540.946 59.25 L 540.946 59.973 L 540.946 59.973 Z  M 542.914 59.25 C 542.914 58.237 543.638 57.459 544.686 57.459 C 545.681 57.459 546.44 58.201 546.44 59.25 L 546.44 59.973 C 546.44 61.021 545.681 61.763 544.686 61.763 C 543.638 61.763 542.914 60.966 542.914 59.973 L 542.914 59.25 L 542.914 59.25 Z  M 557.604 55.799 L 555.637 55.799 L 555.637 60.027 C 555.637 61.148 555.004 61.763 554.027 61.763 C 553.087 61.763 552.436 61.148 552.436 60.027 L 552.436 55.799 L 550.469 55.799 L 550.469 60.027 C 550.469 62.322 551.967 63.64 554.027 63.64 C 556.124 63.64 557.604 62.34 557.604 60.027 L 557.604 55.799 L 557.604 55.799 Z  M 561.437 58.89 C 561.437 58.112 562.087 57.315 563.118 57.315 C 564.129 57.315 564.853 58.112 564.853 58.871 L 561.437 58.89 L 561.437 58.89 Z  M 566.855 59.251 C 566.855 57.152 565.158 55.582 563.118 55.582 C 561.111 55.582 559.395 57.172 559.395 59.251 L 559.395 59.973 C 559.395 62.087 561.094 63.64 563.135 63.64 C 564.473 63.64 565.556 63.116 566.242 62.412 L 565.142 61.038 C 564.654 61.545 564.038 61.835 563.189 61.835 C 562.249 61.835 561.563 61.255 561.455 60.495 L 566.855 60.495 L 566.855 59.251 L 566.855 59.251 Z  M 572.514 54.532 L 575.134 54.532 L 575.134 63.423 L 577.173 63.423 L 577.173 54.532 L 579.793 54.532 L 579.793 52.674 L 572.514 52.674 L 572.514 54.532 L 572.514 54.532 Z  M 586.623 56.179 C 586.081 55.818 585.214 55.582 584.509 55.582 C 582.721 55.582 581.277 56.846 581.277 58.906 L 581.277 63.423 L 583.262 63.423 L 583.262 59.014 C 583.262 57.948 583.985 57.478 584.652 57.478 C 585.232 57.478 585.72 57.695 586.009 57.875 L 586.623 56.179 L 586.623 56.179 Z  M 589.658 59.25 C 589.658 58.255 590.473 57.459 591.412 57.459 C 592.426 57.459 593.185 58.255 593.185 59.25 L 593.185 59.973 C 593.185 61.021 592.426 61.763 591.412 61.763 C 590.473 61.763 589.658 61.021 589.658 59.973 L 589.658 59.25 L 589.658 59.25 Z  M 596.146 61.582 L 595.748 61.582 C 595.351 61.582 595.15 61.383 595.15 60.985 L 595.15 59.25 C 595.15 57.135 593.455 55.582 591.412 55.582 C 589.424 55.582 587.691 57.135 587.691 59.25 L 587.691 59.973 C 587.691 62.033 589.405 63.64 591.412 63.64 C 592.497 63.64 593.293 63.224 593.708 62.719 C 593.869 63.079 594.268 63.423 594.809 63.423 L 596.146 63.423 L 596.146 61.582 L 596.146 61.582 Z  M 596.725 55.799 L 599.363 63.423 L 601.712 63.423 L 604.387 55.799 L 602.398 55.799 L 600.574 60.929 L 598.803 55.799 L 596.725 55.799 L 596.725 55.799 Z  M 607.459 58.89 C 607.459 58.112 608.109 57.315 609.14 57.315 C 610.151 57.315 610.874 58.112 610.874 58.871 L 607.459 58.89 L 607.459 58.89 Z  M 612.877 59.251 C 612.877 57.152 611.182 55.582 609.14 55.582 C 607.133 55.582 605.417 57.172 605.417 59.251 L 605.417 59.973 C 605.417 62.087 607.116 63.64 609.158 63.64 C 610.494 63.64 611.578 63.116 612.265 62.412 L 611.163 61.038 C 610.675 61.545 610.062 61.835 609.211 61.835 C 608.272 61.835 607.585 61.255 607.477 60.495 L 612.877 60.495 L 612.877 59.251 L 612.877 59.251 Z  M 614.578 61.579 C 614.578 62.718 615.283 63.423 616.275 63.423 L 617.666 63.423 L 617.666 61.579 L 617.143 61.579 C 616.744 61.579 616.546 61.381 616.546 60.984 L 616.546 52.005 L 614.578 52.005 L 614.578 61.579 L 614.578 61.579 Z " fill-rule="evenodd" fill="rgb(160,102,17)"/><path d=" M 128.787 2.282 L 127.697 2.282 L 127.697 5.395 L 128.772 5.395 C 129.763 5.395 130.451 4.821 130.451 3.759 C 130.451 2.856 129.82 2.282 128.787 2.282 Z  M 128.787 0.805 C 130.752 0.805 132.071 1.909 132.071 3.759 C 132.071 5.581 130.694 6.872 128.772 6.872 L 127.697 6.872 L 127.697 9.339 L 126.076 9.339 L 126.076 0.805 L 128.787 0.805 L 128.787 0.805 Z " fill-rule="evenodd" fill="rgb(160,102,17)"/><path d=" M 136.629 4.936 C 136.399 4.792 136.012 4.62 135.553 4.62 C 135.022 4.62 134.448 4.993 134.448 5.839 L 134.448 9.339 L 132.871 9.339 L 132.871 5.753 C 132.871 4.118 134.019 3.114 135.438 3.114 C 135.998 3.114 136.687 3.3 137.116 3.587 L 136.629 4.936 Z " fill-rule="evenodd" fill="rgb(160,102,17)"/><path d=" M 141.892 6.025 C 141.892 5.237 141.317 4.606 140.485 4.606 C 139.683 4.606 139.095 5.237 139.095 6.025 L 139.095 6.599 C 139.095 7.402 139.683 8.019 140.485 8.019 C 141.317 8.019 141.892 7.402 141.892 6.599 L 141.892 6.025 L 141.892 6.025 Z  M 143.454 6.599 C 143.454 8.292 142.106 9.511 140.485 9.511 C 138.908 9.511 137.531 8.277 137.531 6.599 L 137.531 6.025 C 137.531 4.347 138.894 3.114 140.485 3.114 C 142.106 3.114 143.454 4.362 143.454 6.025 L 143.454 6.599 L 143.454 6.599 Z " fill-rule="evenodd" fill="rgb(160,102,17)"/><path d=" M 150.105 6.642 C 150.105 8.478 148.93 9.511 147.266 9.511 C 145.631 9.511 144.44 8.464 144.44 6.642 L 144.44 3.286 L 146.004 3.286 L 146.004 6.642 C 146.004 7.532 146.521 8.019 147.266 8.019 C 148.04 8.019 148.542 7.532 148.542 6.642 L 148.542 3.286 L 150.105 3.286 L 150.105 6.642 Z " fill-rule="evenodd" fill="rgb(160,102,17)"/><path d=" M 152.655 6.599 C 152.655 7.402 153.229 8.019 154.062 8.019 C 154.851 8.019 155.453 7.431 155.453 6.599 L 155.453 6.025 C 155.453 5.194 154.851 4.606 154.062 4.606 C 153.229 4.606 152.655 5.237 152.655 6.025 L 152.655 6.599 L 152.655 6.599 Z  M 151.093 6.025 C 151.093 4.362 152.427 3.114 154.047 3.114 C 154.563 3.114 155.008 3.243 155.438 3.487 L 155.438 0.274 L 157.017 0.274 L 157.017 6.599 C 157.017 8.277 155.64 9.511 154.062 9.511 C 152.44 9.511 151.093 8.292 151.093 6.599 L 151.093 6.025 L 151.093 6.025 Z " fill-rule="evenodd" fill="rgb(160,102,17)"/><path d=" M 133.392 24.392 L 133.392 20.835 C 133.392 20.117 133.004 19.658 132.358 19.658 C 131.713 19.658 131.297 20.132 131.297 20.835 L 131.297 24.392 L 129.733 24.392 L 129.733 20.835 C 129.733 20.16 129.317 19.658 128.701 19.658 C 128.041 19.658 127.653 20.117 127.653 20.835 L 127.653 24.392 L 126.076 24.392 L 126.076 20.82 C 126.076 19.228 127.181 18.167 128.687 18.167 C 129.489 18.167 130.121 18.468 130.522 18.898 C 130.938 18.482 131.556 18.167 132.344 18.167 C 133.894 18.167 134.954 19.286 134.954 20.82 L 134.954 24.392 L 133.392 24.392 Z " fill-rule="evenodd" fill="rgb(160,102,17)"/><path d=" M 140.271 20.777 C 140.271 20.175 139.697 19.544 138.894 19.544 C 138.076 19.544 137.56 20.175 137.56 20.792 L 140.271 20.777 L 140.271 20.777 Z  M 141.862 22.068 L 137.574 22.068 C 137.66 22.671 138.205 23.13 138.951 23.13 C 139.625 23.13 140.113 22.9 140.5 22.499 L 141.375 23.589 C 140.83 24.148 139.97 24.564 138.908 24.564 C 137.287 24.564 135.939 23.33 135.939 21.652 L 135.939 21.078 C 135.939 19.429 137.302 18.167 138.894 18.167 C 140.515 18.167 141.862 19.415 141.862 21.078 L 141.862 22.068 L 141.862 22.068 Z " fill-rule="evenodd" fill="rgb(160,102,17)"/><path d=" M 150.093 24.392 L 150.093 20.835 C 150.093 20.117 149.705 19.658 149.06 19.658 C 148.414 19.658 147.998 20.132 147.998 20.835 L 147.998 24.392 L 146.435 24.392 L 146.435 20.835 C 146.435 20.16 146.019 19.658 145.402 19.658 C 144.742 19.658 144.354 20.117 144.354 20.835 L 144.354 24.392 L 142.777 24.392 L 142.777 20.82 C 142.777 19.228 143.882 18.167 145.388 18.167 C 146.19 18.167 146.822 18.468 147.224 18.898 C 147.64 18.482 148.257 18.167 149.045 18.167 C 150.595 18.167 151.655 19.286 151.655 20.82 L 151.655 24.392 L 150.093 24.392 Z " fill-rule="evenodd" fill="rgb(160,102,17)"/><path d=" M 157.216 21.078 C 157.216 20.29 156.642 19.658 155.81 19.658 C 155.021 19.658 154.419 20.247 154.419 21.078 L 154.419 21.652 C 154.419 22.484 155.021 23.072 155.81 23.072 C 156.642 23.072 157.216 22.455 157.216 21.652 L 157.216 21.078 L 157.216 21.078 Z  M 158.779 21.652 C 158.779 23.345 157.431 24.564 155.81 24.564 C 154.232 24.564 152.855 23.33 152.855 21.652 L 152.855 15.327 L 154.433 15.327 L 154.433 18.568 C 154.863 18.324 155.337 18.167 155.824 18.167 C 157.445 18.167 158.779 19.415 158.779 21.078 L 158.779 21.652 L 158.779 21.652 Z " fill-rule="evenodd" fill="rgb(160,102,17)"/><path d=" M 163.882 20.777 C 163.882 20.175 163.309 19.544 162.505 19.544 C 161.688 19.544 161.171 20.175 161.171 20.792 L 163.882 20.777 L 163.882 20.777 Z  M 165.474 22.068 L 161.186 22.068 C 161.271 22.671 161.816 23.13 162.563 23.13 C 163.236 23.13 163.725 22.9 164.111 22.499 L 164.986 23.589 C 164.441 24.148 163.581 24.564 162.52 24.564 C 160.898 24.564 159.551 23.33 159.551 21.652 L 159.551 21.078 C 159.551 19.429 160.913 18.167 162.505 18.167 C 164.126 18.167 165.474 19.415 165.474 21.078 L 165.474 22.068 L 165.474 22.068 Z " fill-rule="evenodd" fill="rgb(160,102,17)"/><path d=" M 170.146 19.988 C 169.917 19.845 169.529 19.673 169.07 19.673 C 168.54 19.673 167.966 20.046 167.966 20.892 L 167.966 24.392 L 166.389 24.392 L 166.389 20.806 C 166.389 19.171 167.536 18.167 168.956 18.167 C 169.516 18.167 170.204 18.353 170.634 18.64 L 170.146 19.988 Z " fill-rule="evenodd" fill="rgb(160,102,17)"/><path d=" M 178.577 21.078 C 178.577 20.29 178.003 19.658 177.171 19.658 C 176.368 19.658 175.78 20.29 175.78 21.078 L 175.78 21.652 C 175.78 22.455 176.368 23.072 177.171 23.072 C 178.003 23.072 178.577 22.455 178.577 21.652 L 178.577 21.078 L 178.577 21.078 Z  M 180.14 21.652 C 180.14 23.345 178.792 24.564 177.171 24.564 C 175.594 24.564 174.217 23.33 174.217 21.652 L 174.217 21.078 C 174.217 19.4 175.579 18.167 177.171 18.167 C 178.792 18.167 180.14 19.415 180.14 21.078 L 180.14 21.652 L 180.14 21.652 Z " fill-rule="evenodd" fill="rgb(160,102,17)"/><path d=" M 184.999 17.105 C 184.783 17.005 184.425 16.904 184.109 16.904 C 183.55 16.904 183.163 17.263 183.163 17.837 L 183.163 18.339 L 184.999 18.339 L 184.999 19.644 L 183.163 19.644 L 183.163 24.392 L 181.585 24.392 L 181.585 19.644 L 180.609 19.644 L 180.609 18.339 L 181.585 18.339 L 181.585 17.708 C 181.585 16.431 182.617 15.441 183.88 15.441 C 184.41 15.441 184.97 15.599 185.3 15.757 L 184.999 17.105 Z " fill-rule="evenodd" fill="rgb(160,102,17)"/><path d=" M 100.031 58.92 C 100.031 57.886 99.191 57.047 98.158 57.047 L 41.52 57.047 C 40.484 57.047 39.646 57.886 39.646 58.92 C 39.646 59.954 40.484 60.793 41.52 60.793 L 98.158 60.793 C 99.191 60.793 100.031 59.954 100.031 58.92 Z  M 93.792 40.185 C 93.792 39.15 92.954 38.311 91.919 38.311 L 41.52 38.311 C 40.484 38.311 39.646 39.15 39.646 40.185 C 39.646 41.218 40.484 42.058 41.52 42.058 L 91.919 42.058 C 92.954 42.058 93.792 41.218 93.792 40.185 Z  M 76.63 21.45 C 76.63 20.415 75.79 19.575 74.757 19.575 L 41.52 19.575 C 40.484 19.575 39.646 20.415 39.646 21.45 C 39.646 22.484 40.484 23.323 41.52 23.323 L 74.757 23.323 C 75.79 23.323 76.63 22.484 76.63 21.45 Z  M 58.995 28.943 L 15.076 28.943 C 14.041 28.943 13.203 29.783 13.203 30.816 C 13.203 31.852 14.041 32.69 15.076 32.69 L 58.995 32.69 C 60.03 32.69 60.868 31.852 60.868 30.816 C 60.868 29.783 60.03 28.943 58.995 28.943 Z  M 58.995 47.678 L 4.802 47.678 C 3.768 47.678 2.928 48.516 2.928 49.551 C 2.928 50.587 3.768 51.425 4.802 51.425 L 58.995 51.425 C 60.03 51.425 60.868 50.587 60.868 49.551 C 60.868 48.516 60.03 47.678 58.995 47.678 Z  M 58.995 66.415 L 1.873 66.415 C 0.84 66.415 0 67.253 0 68.288 C 0 69.322 0.84 70.161 1.873 70.161 L 58.995 70.161 C 60.03 70.161 60.868 69.322 60.868 68.288 C 60.868 67.253 60.03 66.415 58.995 66.415 Z  M 2.449 87.023 C 2.449 88.056 3.289 88.896 4.324 88.896 L 58.995 88.896 C 60.03 88.896 60.868 88.056 60.868 87.023 C 60.868 85.988 60.03 85.149 58.995 85.149 L 4.324 85.149 C 3.289 85.149 2.449 85.988 2.449 87.023 Z  M 11.88 105.757 C 11.88 106.793 12.72 107.631 13.755 107.631 L 58.995 107.631 C 60.03 107.631 60.868 106.793 60.868 105.757 C 60.868 104.724 60.03 103.884 58.995 103.884 L 13.755 103.884 C 12.72 103.884 11.88 104.724 11.88 105.757 Z  M 39.646 115.126 C 39.646 116.16 40.484 117 41.52 117 L 77.564 117 C 78.6 117 79.439 116.16 79.439 115.126 C 79.439 114.09 78.6 113.253 77.564 113.253 L 41.52 113.253 C 40.484 113.253 39.646 114.09 39.646 115.126 Z  M 41.52 98.264 L 92.79 98.264 C 93.825 98.264 94.665 97.424 94.665 96.389 C 94.665 95.356 93.825 94.516 92.79 94.516 L 41.52 94.516 C 40.484 94.516 39.646 95.356 39.646 96.389 C 39.646 97.424 40.484 98.264 41.52 98.264 Z  M 41.52 79.528 L 98.158 79.528 C 99.191 79.528 100.031 78.69 100.031 77.654 C 100.031 76.621 99.191 75.781 98.158 75.781 L 41.52 75.781 C 40.484 75.781 39.646 76.621 39.646 77.654 C 39.646 78.69 40.484 79.528 41.52 79.528 Z " fill-rule="evenodd" fill="rgb(160,102,17)"/></g></g></svg>