<?xml version="1.0" encoding="utf-8"?>
<!-- Generator: Adobe Illustrator 17.0.1, SVG Export Plug-In . SVG Version: 6.00 Build 0)  -->
<!DOCTYPE svg PUBLIC "-//W3C//DTD SVG 1.1//EN" "http://www.w3.org/Graphics/SVG/1.1/DTD/svg11.dtd">
<svg version="1.1" id="Layer_1" xmlns="http://www.w3.org/2000/svg" xmlns:xlink="http://www.w3.org/1999/xlink" x="0px" y="0px"
	 width="35px" height="40px" viewBox="0 0 35 40" enable-background="new 0 0 35 40" xml:space="preserve">
<path fill="#86541C" d="M34.5,20c0-4.115-2.154-7.725-5.394-9.771c-0.757-5.646-5.59-10.001-11.443-10.001
	c-5.78,0-10.567,4.245-11.416,9.788C2.811,12.017,0.5,15.737,0.5,20c0,4.263,2.311,7.983,5.747,9.984
	c0.849,5.543,5.636,9.787,11.416,9.788c5.854,0,10.686-4.355,11.443-10.001C32.346,27.725,34.5,24.115,34.5,20z M10.413,4.528
	c1.857-1.856,4.416-3.002,7.249-3.003c2.833,0,5.392,1.146,7.249,3.003c1.331,1.332,2.294,3.025,2.734,4.92
	c-1.435-0.64-3.023-0.998-4.695-0.998c-1.971,0-3.827,0.495-5.45,1.366c-1.624-0.871-3.479-1.366-5.45-1.366
	c-1.534,0-2.996,0.302-4.335,0.844C8.171,7.461,9.119,5.824,10.413,4.528z M27.915,11.778c0,2.892-1.197,5.498-3.123,7.363
	c-1.361-1.07-2.971-1.841-4.726-2.214c0.831-0.69,1.361-1.731,1.361-2.896c0-1.594-0.992-2.953-2.392-3.502
	c1.207-0.5,2.527-0.781,3.916-0.781c1.79,0,3.47,0.459,4.933,1.264C27.902,11.265,27.914,11.52,27.915,11.778z M27.883,28.988
	c-1.463,0.805-3.143,1.263-4.933,1.264c-1.389,0-2.709-0.281-3.916-0.781c1.399-0.549,2.391-1.908,2.392-3.502
	c0-1.165-0.53-2.206-1.361-2.896c1.756-0.373,3.365-1.143,4.726-2.214c1.926,1.865,3.123,4.471,3.123,7.363
	C27.914,28.48,27.902,28.735,27.883,28.988z M7.411,28.222c0-2.892,1.197-5.498,3.123-7.363c1.361,1.07,2.971,1.841,4.727,2.214
	c-0.831,0.69-1.361,1.731-1.361,2.896c0,1.532,0.916,2.847,2.229,3.434c-1.25,0.543-2.627,0.848-4.079,0.848
	c-1.654,0-3.212-0.393-4.594-1.087C7.427,28.854,7.411,28.54,7.411,28.222z M7.456,10.835c1.382-0.694,2.941-1.087,4.594-1.087
	c1.451,0,2.829,0.305,4.079,0.848c-1.313,0.588-2.229,1.902-2.229,3.434c0,1.165,0.53,2.206,1.361,2.896
	c-1.756,0.373-3.365,1.143-4.727,2.214c-1.926-1.865-3.123-4.471-3.123-7.363C7.411,11.46,7.427,11.146,7.456,10.835z M11.547,20
	c1.709-1.274,3.821-2.029,6.116-2.029c2.295,0,4.408,0.756,6.116,2.029c-1.709,1.274-3.821,2.029-6.116,2.029
	C15.367,22.029,13.255,21.274,11.547,20z M17.663,16.496c-0.683,0-1.295-0.275-1.743-0.722c-0.447-0.448-0.722-1.061-0.722-1.743
	c0-0.683,0.275-1.295,0.722-1.743c0.448-0.447,1.061-0.722,1.743-0.722c0.683,0,1.295,0.275,1.743,0.722
	c0.447,0.448,0.722,1.061,0.722,1.743c0,0.683-0.275,1.295-0.722,1.743C18.958,16.221,18.346,16.496,17.663,16.496z M15.919,27.713
	c-0.447-0.448-0.722-1.061-0.722-1.743c0-0.683,0.275-1.295,0.722-1.743c0.448-0.447,1.061-0.722,1.743-0.722
	c0.683,0,1.295,0.275,1.743,0.722c0.447,0.448,0.722,1.061,0.722,1.743c0,0.683-0.275,1.295-0.722,1.743
	c-0.448,0.447-1.061,0.722-1.743,0.722C16.98,28.435,16.367,28.16,15.919,27.713z M4.8,27.249C2.944,25.392,1.798,22.833,1.798,20
	c0-2.833,1.146-5.392,3.003-7.249c0.406-0.406,0.847-0.775,1.316-1.109c-0.001,0.045-0.003,0.09-0.003,0.135
	c0,3.218,1.322,6.13,3.446,8.222c-2.124,2.093-3.447,5.004-3.446,8.222c0,0.045,0.003,0.09,0.003,0.135
	C5.648,28.025,5.206,27.655,4.8,27.249z M24.912,35.472c-1.857,1.856-4.416,3.002-7.249,3.003c-2.833,0-5.392-1.146-7.249-3.003
	c-1.295-1.296-2.243-2.933-2.698-4.766c1.339,0.543,2.801,0.844,4.335,0.844c1.971,0,3.827-0.495,5.45-1.366
	c1.624,0.871,3.479,1.366,5.45,1.366c1.673,0,3.26-0.359,4.695-0.998C27.205,32.447,26.243,34.14,24.912,35.472z M29.209,28.117
	c-0.028-3.176-1.343-6.047-3.443-8.117c2.101-2.07,3.415-4.941,3.443-8.117c0.348,0.269,0.68,0.557,0.99,0.868
	c1.856,1.857,3.002,4.416,3.003,7.249c0,2.833-1.146,5.392-3.003,7.249C29.889,27.56,29.557,27.848,29.209,28.117z"/>
</svg>
