<?xml version="1.0" encoding="utf-8"?>
<!-- Generator: Adobe Illustrator 17.0.1, SVG Export Plug-In . SVG Version: 6.00 Build 0)  -->
<!DOCTYPE svg PUBLIC "-//W3C//DTD SVG 1.1//EN" "http://www.w3.org/Graphics/SVG/1.1/DTD/svg11.dtd">
<svg version="1.1" id="Layer_1" xmlns="http://www.w3.org/2000/svg" xmlns:xlink="http://www.w3.org/1999/xlink" x="0px" y="0px"
	 width="343.667px" height="55px" viewBox="0 0 343.667 55" enable-background="new 0 0 343.667 55" xml:space="preserve">
<g>
	<g>
		<g>
			<path fill="#FFFFFF" d="M63.854,13.912h21.225v6.106h-1.104c-0.441-4.01-1.214-4.819-5.518-4.819h-2.17v20.747
				c0,2.06,0.11,2.133,4.046,2.354v1.067H68.599v-1.067c3.936-0.221,4.046-0.294,4.046-2.354V15.2h-2.17
				c-4.304,0-5.076,0.809-5.518,4.819h-1.103V13.912z"/>
			<path fill="#FFFFFF" d="M94.533,38.301c3.237-0.221,3.311-0.294,3.311-2.354V17.333c0-2.06-0.073-2.133-3.311-2.354v-1.067
				h10.263v1.067c-3.2,0.221-3.311,0.294-3.311,2.354v18.614c0,2.06,0.11,2.133,3.311,2.354v1.067H94.533V38.301z"/>
			<path fill="#FFFFFF" d="M114.729,38.301c3.237-0.221,3.311-0.294,3.311-2.354V17.333c0-2.06-0.073-2.133-3.311-2.354v-1.067
				h10.263v1.067c-3.2,0.221-3.311,0.294-3.311,2.354v8.681c2.649-2.722,6.806-7.063,8.939-9.454
				c0.809-0.956,0.736-1.398-0.037-1.471l-1.398-0.111v-1.067h8.939v1.067c-3.127,0.184-3.862,0.589-5.775,2.281
				c-2.244,1.95-5.076,4.745-7.504,7.431c2.501,3.752,5.592,7.467,8.865,10.962c1.582,1.655,2.759,2.685,4.267,3.016v0.883
				l-2.318-0.11c-2.281-0.073-4.23-0.736-6.364-3.163c-2.869-3.237-5.407-6.695-7.504-9.896l-0.037-0.147h-0.074v9.711
				c0,2.06,0.111,2.133,3.311,2.354v1.067h-10.263V38.301z"/>
			<path fill="#FFFFFF" d="M143.937,38.301c2.318-0.111,2.649-0.552,3.421-2.538c1.288-3.347,2.832-7.762,3.973-10.962l3.862-10.888
				h2.722l7.799,22.182c0.662,1.913,1.067,2.023,3.2,2.207v1.067h-9.417v-1.067l1.655-0.147c1.177-0.11,1.361-0.515,0.993-1.582
				l-2.464-7.026h-8.24c-0.846,2.611-1.619,4.892-2.244,7.1c-0.294,0.993-0.184,1.361,0.92,1.471l1.913,0.184v1.067h-8.093V38.301z
				 M159.24,28.148l-3.642-10.521h-0.11c-1.103,3.237-2.391,6.842-3.568,10.521H159.24z"/>
			<path fill="#FFFFFF" d="M190.84,13.912h21.225v6.106h-1.104c-0.441-4.01-1.214-4.819-5.517-4.819h-2.171v20.747
				c0,2.06,0.111,2.133,4.046,2.354v1.067h-11.734v-1.067c3.936-0.221,4.046-0.294,4.046-2.354V15.2h-2.171
				c-4.304,0-5.076,0.809-5.518,4.819h-1.104V13.912z"/>
			<path fill="#FFFFFF" d="M224.462,16.929c2.06-2.318,5.076-3.568,9.123-3.568c4.046,0,7.063,1.251,9.123,3.568
				c1.986,2.207,3.127,5.592,3.127,9.711s-1.14,7.504-3.127,9.711c-2.06,2.318-5.076,3.568-9.123,3.568
				c-4.046,0-7.063-1.25-9.123-3.568c-1.986-2.207-3.127-5.592-3.127-9.711S222.476,19.136,224.462,16.929z M233.585,38.632
				c6.548,0,8.13-6.585,8.13-11.992s-1.582-11.992-8.13-11.992c-6.548,0-8.13,6.585-8.13,11.992S227.037,38.632,233.585,38.632z"/>
			<path fill="#FFFFFF" d="M256.024,13.912h10.263v1.067c-3.201,0.221-3.311,0.294-3.311,2.354v11.919
				c0,3.494,0.552,5.702,1.655,7.173c1.14,1.471,2.759,2.207,4.855,2.207c2.134,0,3.752-0.736,4.893-2.207
				c1.103-1.471,1.655-3.679,1.655-7.173V17.333c0-2.06-0.074-2.133-3.311-2.354v-1.067h10.263v1.067
				c-3.2,0.221-3.31,0.294-3.31,2.354v12.654c0,2.207-0.368,4.157-0.993,5.444c-1.692,3.642-5.555,4.488-9.197,4.488
				c-3.605,0-7.467-0.883-9.159-4.488c-0.625-1.251-0.993-3.2-0.993-5.371V17.333c0-2.06-0.073-2.133-3.311-2.354V13.912z"/>
			<path fill="#FFFFFF" d="M292.7,38.301c3.237-0.221,3.311-0.294,3.311-2.354V17.333c0-2.06-0.074-2.133-3.311-2.354v-1.067h10.741
				c6.437,0,8.644,2.759,8.644,6.29c0,3.494-2.538,5.812-5.996,6.474v0.073c3.899,0.956,4.561,3.421,5.003,6.695
				c0.331,2.502,0.919,4.562,3.789,4.856v1.067h-2.98c-2.171,0-3.568-0.81-4.12-3.164c-0.405-1.692-0.81-4.598-1.067-5.628
				c-0.625-2.502-2.318-3.201-4.525-3.201h-2.538v8.571c0,1.581,0,1.618,0.111,1.766c0.258,0.441,1.103,0.441,2.649,0.589v1.067
				H292.7V38.301z M302.559,26.088c3.568,0,5.592-1.692,5.592-5.554c0-4.341-3.09-5.334-5.812-5.334
				c-2.428,0-2.685,0.294-2.685,1.839v9.049H302.559z"/>
			<path fill="#FFFFFF" d="M325.477,31.827c0.92,4.12,3.2,6.806,6.658,6.806c3.274,0,5.297-1.913,5.297-5.077
				c0-3.274-3.495-4.966-5.113-5.591l-0.662-0.258c-3.862-1.361-6.952-3.384-6.952-7.247c0-4.856,3.973-7.1,8.461-7.1
				c2.501,0,5.003,0.625,6.253,1.619v5.187h-1.14c-0.589-3.715-2.354-5.518-5.518-5.518c-3.09,0-4.709,1.986-4.709,4.672
				c0,2.207,2.06,3.789,4.524,4.709l1.177,0.441c4.304,1.582,7.246,3.642,7.246,7.983c0,3.752-2.575,7.467-9.086,7.467
				c-2.575,0-5.628-0.699-7.246-2.207l-0.368-5.886H325.477z"/>
		</g>
	</g>
	<path fill="#FFFFFF" d="M46.057,27.202c0-5.454-2.855-10.237-7.148-12.948C37.906,6.772,31.501,1.001,23.744,1
		C16.085,1.001,9.74,6.626,8.616,13.971C4.063,16.623,1,21.553,1,27.202c0,5.649,3.063,10.579,7.616,13.231
		c1.125,7.345,7.469,12.97,15.129,12.971c7.757-0.001,14.161-5.772,15.165-13.254C43.203,37.44,46.057,32.656,46.057,27.202z
		 M14.137,6.699c2.461-2.46,5.852-3.979,9.607-3.979c3.754,0,7.145,1.519,9.607,3.979c1.764,1.765,3.04,4.009,3.623,6.52
		c-1.902-0.848-4.006-1.322-6.222-1.323c-2.613,0-5.071,0.656-7.223,1.81c-2.152-1.154-4.61-1.81-7.223-1.81
		c-2.032,0-3.97,0.4-5.744,1.119C11.166,10.586,12.422,8.416,14.137,6.699z M37.33,16.306c0,3.833-1.586,7.286-4.139,9.757
		c-1.804-1.418-3.937-2.44-6.264-2.934c1.102-0.915,1.803-2.294,1.804-3.838c0-2.112-1.315-3.913-3.169-4.64
		c1.599-0.663,3.349-1.035,5.19-1.035c2.372,0,4.598,0.608,6.537,1.675C37.313,15.626,37.33,15.964,37.33,16.306z M37.288,39.114
		c-1.939,1.067-4.165,1.674-6.537,1.675c-1.841,0-3.591-0.372-5.19-1.035c1.854-0.727,3.169-2.528,3.169-4.64
		c0-1.544-0.702-2.923-1.804-3.838c2.327-0.494,4.46-1.515,6.264-2.934c2.552,2.472,4.138,5.925,4.139,9.757
		C37.33,38.441,37.313,38.778,37.288,39.114z M10.158,38.099c0-3.833,1.586-7.286,4.139-9.757c1.804,1.418,3.937,2.44,6.264,2.934
		c-1.102,0.915-1.803,2.294-1.804,3.838c0,2.03,1.214,3.772,2.954,4.551c-1.657,0.72-3.482,1.124-5.405,1.124
		c-2.191,0-4.257-0.521-6.088-1.441C10.18,38.936,10.158,38.52,10.158,38.099z M10.218,15.057c1.831-0.92,3.897-1.441,6.088-1.441
		c1.924,0,3.749,0.404,5.405,1.124c-1.74,0.779-2.954,2.521-2.954,4.551c0,1.544,0.702,2.923,1.804,3.838
		c-2.327,0.494-4.46,1.515-6.264,2.934c-2.552-2.472-4.138-5.925-4.139-9.757C10.158,15.884,10.18,15.468,10.218,15.057z
		 M15.639,27.202c2.264-1.688,5.063-2.689,8.105-2.689c3.042,0,5.841,1.002,8.105,2.689c-2.264,1.688-5.063,2.689-8.105,2.689
		C20.702,29.891,17.903,28.89,15.639,27.202z M23.744,22.559c-0.905,0-1.716-0.364-2.31-0.957c-0.593-0.594-0.957-1.405-0.957-2.31
		c0-0.905,0.364-1.716,0.957-2.31c0.594-0.593,1.405-0.957,2.31-0.957c0.905,0,1.716,0.364,2.31,0.957
		c0.593,0.594,0.957,1.405,0.957,2.31c0,0.905-0.364,1.716-0.957,2.31C25.461,22.195,24.649,22.559,23.744,22.559z M21.434,37.424
		c-0.593-0.594-0.957-1.405-0.957-2.31c0-0.905,0.364-1.716,0.957-2.31c0.594-0.593,1.405-0.957,2.31-0.957
		c0.905,0,1.716,0.364,2.31,0.957c0.593,0.594,0.957,1.405,0.957,2.31c0,0.905-0.364,1.716-0.957,2.31
		c-0.594,0.593-1.405,0.957-2.31,0.957C22.839,38.38,22.028,38.016,21.434,37.424z M6.699,36.809
		c-2.46-2.461-3.979-5.852-3.979-9.607c0-3.754,1.519-7.145,3.979-9.607c0.538-0.538,1.123-1.027,1.744-1.469
		c-0.001,0.06-0.005,0.119-0.005,0.179c0,4.265,1.752,8.123,4.567,10.897c-2.815,2.773-4.568,6.632-4.567,10.897
		c0,0.06,0.004,0.119,0.005,0.179C7.822,37.836,7.237,37.347,6.699,36.809z M33.351,47.706c-2.461,2.46-5.852,3.979-9.607,3.979
		c-3.754,0-7.145-1.519-9.607-3.979c-1.716-1.717-2.972-3.887-3.576-6.316c1.774,0.719,3.712,1.119,5.744,1.119
		c2.613,0,5.071-0.656,7.223-1.81c2.152,1.154,4.61,1.81,7.223,1.81c2.216,0,4.321-0.475,6.222-1.323
		C36.39,43.697,35.114,45.941,33.351,47.706z M39.046,37.959c-0.038-4.209-1.779-8.014-4.563-10.757
		c2.784-2.743,4.526-6.547,4.563-10.757c0.461,0.356,0.901,0.738,1.312,1.15c2.46,2.461,3.979,5.852,3.979,9.607
		c0,3.754-1.519,7.145-3.979,9.607C39.947,37.22,39.507,37.603,39.046,37.959z"/>
</g>
</svg>
